<svg xmlns="http://www.w3.org/2000/svg" viewBox="0 0 1400 420" width="1400" height="420" role="img" aria-label="UNDERGROUND — streetwear storefront">
  <defs>
    <linearGradient id="sky" x1="0" y1="0" x2="0" y2="1">
      <stop offset="0" stop-color="#0a0a0a"/>
      <stop offset="1" stop-color="#1a1a1a"/>
    </linearGradient>
    <filter id="grain" x="0" y="0" width="100%" height="100%">
      <feTurbulence type="fractalNoise" baseFrequency="0.9" numOctaves="2" stitchTiles="stitch"/>
      <feColorMatrix type="matrix" values="0 0 0 0 1  0 0 0 0 1  0 0 0 0 1  0 0 0 0.08 0"/>
      <feComposite in2="SourceGraphic" operator="in"/>
    </filter>
    <pattern id="dots" width="24" height="24" patternUnits="userSpaceOnUse">
      <circle cx="1" cy="1" r="1" fill="#ffffff" fill-opacity="0.06"/>
    </pattern>
  </defs>

  <rect width="1400" height="420" fill="url(#sky)"/>
  <rect width="1400" height="420" fill="url(#dots)"/>
  <rect width="1400" height="420" filter="url(#grain)"/>

  <g font-family="Inter, sans-serif" fill="#ffffff">
    <text x="60" y="60" font-family="JetBrains Mono, monospace" font-size="11" letter-spacing="6" fill="#ffffff" opacity="0.55">SS 26 — DROP 01</text>

    <text x="60" y="220" font-size="160" font-weight="500" letter-spacing="-6">UNDERGROUND</text>
    <text x="60" y="270" font-family="JetBrains Mono, monospace" font-size="13" letter-spacing="5" opacity="0.65">— BUILT SLOW · DROPPED RARE · NO PRESS RELEASES —</text>

    <g transform="translate(60, 320)" font-family="JetBrains Mono, monospace" font-size="11" letter-spacing="4" opacity="0.75">
      <rect x="0" y="0" width="150" height="34" fill="none" stroke="#ffffff" stroke-width="1"/>
      <text x="75" y="22" text-anchor="middle">SHOP THE DROP</text>
      <rect x="165" y="0" width="120" height="34" fill="none" stroke="#ffffff" stroke-width="1"/>
      <text x="225" y="22" text-anchor="middle">LOOKBOOK</text>
    </g>

    <g transform="translate(980, 90)" opacity="0.9">
      <rect x="0" y="0" width="360" height="260" fill="none" stroke="#ffffff" stroke-width="1" opacity="0.2"/>
      <text x="12" y="22" font-family="JetBrains Mono, monospace" font-size="10" letter-spacing="4" opacity="0.6">FRAME 01 · SS26</text>
      <path d="M40,230 L80,150 L140,190 L210,80 L280,140 L330,110" stroke="#ffffff" stroke-width="1.2" fill="none" opacity="0.6"/>
      <circle cx="80" cy="150" r="3" fill="#ffffff"/>
      <circle cx="210" cy="80" r="3" fill="#ffffff"/>
      <circle cx="330" cy="110" r="3" fill="#ffffff"/>
      <text x="12" y="250" font-family="JetBrains Mono, monospace" font-size="9" letter-spacing="3" opacity="0.5">27 SKUS · 3 SIGNATURE RUNS · 1 CULT</text>
    </g>

    <g transform="translate(60, 378)" font-family="JetBrains Mono, monospace" font-size="10" letter-spacing="4" opacity="0.5">
      <text x="0" y="0">CAIRO</text>
      <text x="80" y="0">·</text>
      <text x="100" y="0">LONDON</text>
      <text x="190" y="0">·</text>
      <text x="210" y="0">TOKYO</text>
      <text x="290" y="0">·</text>
      <text x="310" y="0">EVERYWHERE UNDERGROUND</text>
    </g>
  </g>
</svg>
